<svg id="logo_universal_storybook" enable-background="new 0 0 512 512" height="512" viewBox="0 0 512 512" width="512" xmlns="http://www.w3.org/2000/svg"><g><g><ellipse cx="215.373" cy="215.373" fill="#eaf0f0" rx="205.373" ry="205.373" transform="matrix(.707 -.707 .707 .707 -89.21 215.373)"/></g><g><ellipse cx="215.373" cy="215.373" fill="#ffc135" rx="167.964" ry="83.692" transform="matrix(.707 -.707 .707 .707 -89.21 215.373)"/></g><g><ellipse cx="216.504" cy="216.504" fill="#ffd88a" rx="54.466" ry="167.977" transform="matrix(.707 -.707 .707 .707 -89.679 216.505)"/></g><g><path d="m10.96 360.593c16.345-16.345 42.847-16.345 59.192 0s16.345 42.846 0 59.192z" fill="#ffc135"/></g><g><path d="m419.791 70.146c-16.345 16.345-42.847 16.345-59.192 0s-16.345-42.846 0-59.192z" fill="#ffc135"/></g><g><ellipse cx="215.373" cy="215.373" fill="#ffc135" rx="19.693" ry="35.066" transform="matrix(.707 -.707 .707 .707 -89.21 215.373)"/></g><g><path d="m425.12 5.625c-3.905-3.904-10.237-3.904-14.142 0l-20.783 20.783-22.525-22.525c-3.904-3.904-10.236-3.904-14.142 0-9.317 9.316-14.641 21.555-15.139 34.648-35.833-25.04-78.386-38.531-123.016-38.531-57.529 0-111.613 22.403-152.292 63.082-40.678 40.678-63.081 94.763-63.081 152.291 0 44.62 13.486 87.165 38.515 122.993-12.961.506-25.459 5.989-34.626 15.155-3.905 3.905-3.905 10.237 0 14.143l22.525 22.525-20.789 20.789c-3.905 3.905-3.905 10.237 0 14.142 56.026 56.026 130.516 86.88 209.748 86.88s153.722-30.854 209.747-86.88c56.026-56.026 86.88-130.516 86.88-209.747s-30.854-153.722-86.88-209.748zm-63.394 20.598 42.797 42.796c-4.389 2.214-9.269 3.386-14.328 3.386-8.509 0-16.508-3.313-22.524-9.33-6.017-6.017-9.331-14.017-9.331-22.525 0-5.058 1.172-9.938 3.386-14.327zm-284.502 51.001c36.901-36.902 85.963-57.224 138.149-57.224 48.839 0 94.94 17.801 130.899 50.331l-12.812 12.812c-31.739-21.468-87.083-9.067-141.46 29.573-9.479-6.289-18.769-11.78-27.706-16.341-43.429-22.161-64.016-15.342-73.638-5.72-9.623 9.623-16.442 30.209 5.72 73.639 4.567 8.949 10.067 18.251 16.365 27.743-14.641 20.644-25.837 41.863-32.679 62.296-10.92 32.609-9.756 60.242 3.073 79.134l-12.804 12.804c-32.53-35.958-50.331-82.06-50.331-130.898 0-52.186 20.322-101.248 57.224-138.149zm254.494 92.837c-5.559 16.602-14.332 33.85-25.727 50.868-11.157-14.675-23.966-29.534-38.009-44.023l65.028-65.028c7.087 13.694 6.737 34.209-1.292 58.183zm-50.094 111.563c8.68-8.68 16.684-17.569 23.985-26.554 5.031 7.78 9.463 15.392 13.209 22.735 9.32 18.265 17.373 42.425 9.392 50.405-7.98 7.983-32.141-.072-50.406-9.392-7.35-3.75-14.97-8.187-22.757-13.224 9.089-7.372 17.99-15.384 26.577-23.97zm-14.143-14.143c-9.547 9.547-19.478 18.334-29.599 26.233-15.497-11.409-31.354-24.889-46.832-39.876l10.884-10.884c9.415 7.128 19.433 10.896 28.23 10.896 6.657 0 12.614-2.149 17.075-6.611 10.358-10.358 8.245-28.767-4.28-45.31l10.879-10.879c14.988 15.478 28.467 31.335 39.876 46.832-7.899 10.121-16.685 20.051-26.233 29.599zm-168.454-6.796c5.602-16.729 14.466-34.113 25.988-51.257 11.036 14.757 23.78 29.736 37.793 44.368l-65.072 65.072c-7.087-13.694-6.737-34.209 1.291-58.183zm15.163-105.481c-9.32-18.265-17.373-42.425-9.392-50.406 7.979-7.979 32.14.072 50.406 9.393 6.452 3.292 13.113 7.114 19.912 11.406-8.793 7.178-17.494 15.027-25.993 23.526-8.409 8.409-16.269 17.119-23.514 26.012-4.298-6.806-8.124-13.473-11.419-19.931zm49.075 8.061c9.42-9.42 19.214-18.097 29.195-25.914 15.574 11.257 31.556 24.649 47.191 39.602l-10.848 10.847c-5.901-4.435-12.226-7.697-18.414-9.434-10.789-3.03-20.587-1.155-26.882 5.141-6.296 6.296-8.17 16.094-5.142 26.883 1.737 6.188 4.999 12.513 9.435 18.414l-10.848 10.848c-14.953-15.635-28.345-31.617-39.602-47.191 7.818-9.982 16.494-19.776 25.915-29.196zm90.53-.457c-14.633-14.013-29.611-26.758-44.368-37.793 16.801-11.291 35.009-20.992 54.398-27.002 17.158-5.318 38.313-8.929 55.04-.274zm-45.273 59.422c-3.119-3.821-16.746-18.709-10.873-24.581 5.624-5.624 21.158 7.451 24.578 10.871 3.478 3.478 16.487 18.965 10.87 24.578-5.614 5.612-21.133-7.427-24.575-10.868zm-31.616 45.752c14.489 14.043 29.348 26.853 44.023 38.009-17.019 11.395-34.266 20.168-50.868 25.727-23.974 8.029-44.488 8.379-58.183 1.291zm-122.256 93.643c3.105 1.534 5.964 3.576 8.415 6.024 9.56 9.56 12.042 24.587 6.054 36.668-.014.008-.191.102-.341-.049l-42.3-42.3c-.126-.126-.082-.267-.044-.326 8.863-4.377 19.349-4.383 28.216-.017zm356.328 49.353c-52.248 52.248-121.715 81.022-195.605 81.022-70.548 0-137.062-26.229-188.41-74.076l13.593-13.593 22.524 22.524c3.823 3.822 10.311 3.831 14.142 0 9.186-9.185 14.676-21.739 15.16-34.716 29.644 20.6 64.239 33.626 100.363 37.42 7.474.785 14.959 1.174 22.437 1.174 40.662-.001 80.884-11.5 115.223-33.23 4.667-2.953 6.056-9.131 3.103-13.798-2.953-4.666-9.131-6.054-13.798-3.103-36.866 23.33-81.215 33.656-124.875 29.066-40.973-4.304-79.783-21.701-110.351-49.266l12.804-12.802c23.164 15.73 54.101 11.464 79.124 3.083 20.254-6.783 41.281-17.844 61.754-32.296 10.465 7.091 20.719 13.23 30.548 18.246 21.343 10.891 37.167 14.782 48.886 14.782 12.126 0 19.858-4.169 24.752-9.062 9.623-9.623 16.442-30.209-5.719-73.639-5.009-9.817-11.14-20.057-18.219-30.509 38.338-54.204 50.585-109.286 29.189-140.92l12.801-12.801c27.808 30.833 45.242 70.005 49.366 111.373 4.394 44.081-6.377 88.702-30.328 125.646-3.005 4.634-1.684 10.826 2.951 13.831 4.632 3.004 10.826 1.684 13.831-2.951 26.412-40.738 38.291-89.928 33.448-138.509-3.644-36.558-16.716-71.558-37.543-101.516 13.126-.478 25.398-5.804 34.735-15.141 3.905-3.905 3.905-10.237 0-14.142l-22.527-22.525 13.587-13.587c47.847 51.348 74.076 117.862 74.076 188.41 0 73.889-28.774 143.356-81.022 195.605z"/><path d="m369.83 356.77c-2.095-5.028-8.021-7.497-13.06-5.41-5.034 2.084-7.499 8.025-5.41 13.06 2.086 5.029 8.027 7.498 13.06 5.41 5.02-2.083 7.505-8.035 5.41-13.06z"/></g></g></svg>
